# xmcd
# 
# Track frame offsets:
#     150
#     17545
#     34552
#     53622
#     70962
#     85025
#     104505
#     127412
#     144350
#     160775
#     178565
#     195467
# 
# Disc length: 3104
# 
# Revision: 2
# Processed by: cddbd v1.5.2PL0 Copyright (c) Steve Scherf et al.
# Submitted via: fre:ac v1.0.17
# 
DISCID=980c1e0c
DTITLE=Scott Keeton and The Deviants - 100 Mile Blues
DYEAR=1999
DGENRE=Blues Rock
TTITLE0=My Kind of Lover
TTITLE1=Look at That Girl
TTITLE2=Do It Right Boogie
TTITLE3=Between a Rock
TTITLE4=100 Mile Blues
TTITLE5=Eye on You
TTITLE6=Nothing Left to Say
TTITLE7=Noah´s Swing
TTITLE8=She Doesn´t Love Me
TTITLE9=Back Door Shuffle
TTITLE10=Sugar Hill
TTITLE11=Heartbreak
EXTD=
EXTT0=
EXTT1=
EXTT2=
EXTT3=
EXTT4=
EXTT5=
EXTT6=
EXTT7=
EXTT8=
EXTT9=
EXTT10=
EXTT11=
PLAYORDER=
